<svg version="1.1" id="Layer_1" xmlns="http://www.w3.org/2000/svg" xmlns:xlink="http://www.w3.org/1999/xlink" x="0px" y="0px"
	 width="100%" viewBox="0 0 1920 1920" enable-background="new 0 0 1920 1920" xml:space="preserve">
<path fill="#1A5BB9" opacity="1.000000" stroke="none" 
	d="
M920.000000,1921.000000 
	C613.333313,1921.000000 307.166656,1921.000000 1.000000,1921.000000 
	C1.000000,1281.000000 1.000000,641.000000 1.000000,1.000000 
	C641.000000,1.000000 1281.000000,1.000000 1921.000000,1.000000 
	C1921.000000,641.000000 1921.000000,1281.000000 1921.000000,1921.000000 
	C1587.500000,1921.000000 1254.000000,1921.000000 920.000000,1921.000000 
M824.499939,845.867065 
	C841.916748,845.867065 859.333496,845.867065 876.652466,845.867065 
	C876.652466,861.819824 876.652466,877.052185 876.652466,892.692383 
	C760.708923,892.692383 645.111450,892.692383 529.257324,892.692383 
	C529.257324,936.178894 529.257324,979.252380 529.257324,1022.526733 
	C817.206299,1022.526733 1104.924072,1022.526733 1392.691284,1022.526733 
	C1392.691284,979.127441 1392.691284,936.045532 1392.691284,892.553345 
	C1276.775269,892.553345 1161.167603,892.553345 1045.405151,892.553345 
	C1045.405151,876.776550 1045.405151,861.413696 1045.405151,845.669800 
	C1147.385742,845.669800 1248.989014,845.669800 1350.739990,845.669800 
	C1350.739990,802.531738 1350.739990,759.778687 1350.739990,716.466858 
	C1150.078735,716.466858 949.676941,716.466858 749.304810,716.466858 
	C749.304810,696.311035 749.304810,676.715942 749.304810,656.571777 
	C946.664124,656.571777 1143.719727,656.571777 1340.764404,656.571777 
	C1340.764404,613.400818 1340.764404,570.782654 1340.764404,527.960571 
	C1087.484375,527.960571 834.440369,527.960571 581.301270,527.960571 
	C581.301270,633.999695 581.301270,739.733887 581.301270,845.867065 
	C662.237976,845.867065 742.868958,845.867065 824.499939,845.867065 
M1216.437622,1085.041870 
	C1203.219482,1081.689697 1190.083130,1077.963257 1176.768921,1075.050171 
	C1119.438110,1062.506714 1061.222046,1057.632202 1002.704468,1056.233276 
	C936.193237,1054.643188 869.769897,1056.061279 803.691956,1064.931641 
	C766.020386,1069.988525 728.811951,1077.181519 692.660095,1089.147339 
	C663.897888,1098.667603 636.558655,1110.892334 612.863342,1130.385742 
	C564.422729,1170.236450 559.702271,1233.934692 580.775940,1278.156982 
	C593.538635,1304.938843 614.908447,1323.345093 640.178528,1337.630249 
	C668.526367,1353.655396 699.296875,1363.324585 730.736572,1371.003296 
	C781.723206,1383.456055 833.655457,1389.207520 885.947815,1391.752441 
	C961.610413,1395.434692 1037.170532,1394.407471 1112.472900,1385.094604 
	C1153.360107,1380.037964 1193.658691,1372.280762 1232.749512,1359.002686 
	C1261.296631,1349.305908 1288.309814,1336.793213 1311.459717,1316.866699 
	C1353.491821,1280.687378 1361.632812,1225.003052 1345.108765,1180.238647 
	C1335.189575,1153.367188 1316.362793,1133.854614 1292.858643,1118.362793 
	C1269.537354,1102.991455 1243.622070,1093.555054 1216.437622,1085.041870 
z"/>
<path fill="#FFFFFF" opacity="1.000000" stroke="none" 
	d="
M823.999878,845.867065 
	C742.868958,845.867065 662.237976,845.867065 581.301270,845.867065 
	C581.301270,739.733887 581.301270,633.999695 581.301270,527.960571 
	C834.440369,527.960571 1087.484375,527.960571 1340.764404,527.960571 
	C1340.764404,570.782654 1340.764404,613.400818 1340.764404,656.571777 
	C1143.719727,656.571777 946.664124,656.571777 749.304810,656.571777 
	C749.304810,676.715942 749.304810,696.311035 749.304810,716.466858 
	C949.676941,716.466858 1150.078735,716.466858 1350.739990,716.466858 
	C1350.739990,759.778687 1350.739990,802.531738 1350.739990,845.669800 
	C1248.989014,845.669800 1147.385742,845.669800 1045.405151,845.669800 
	C1045.405151,861.413696 1045.405151,876.776550 1045.405151,892.553345 
	C1161.167603,892.553345 1276.775269,892.553345 1392.691284,892.553345 
	C1392.691284,936.045532 1392.691284,979.127441 1392.691284,1022.526733 
	C1104.924072,1022.526733 817.206299,1022.526733 529.257324,1022.526733 
	C529.257324,979.252380 529.257324,936.178894 529.257324,892.692383 
	C645.111450,892.692383 760.708923,892.692383 876.652466,892.692383 
	C876.652466,877.052185 876.652466,861.819824 876.652466,845.867065 
	C859.333496,845.867065 841.916748,845.867065 823.999878,845.867065 
z"/>
<path fill="#FFFFFF" opacity="1.000000" stroke="none" 
	d="
M1216.827393,1085.136230 
	C1243.622070,1093.555054 1269.537354,1102.991455 1292.858643,1118.362793 
	C1316.362793,1133.854614 1335.189575,1153.367188 1345.108765,1180.238647 
	C1361.632812,1225.003052 1353.491821,1280.687378 1311.459717,1316.866699 
	C1288.309814,1336.793213 1261.296631,1349.305908 1232.749512,1359.002686 
	C1193.658691,1372.280762 1153.360107,1380.037964 1112.472900,1385.094604 
	C1037.170532,1394.407471 961.610413,1395.434692 885.947815,1391.752441 
	C833.655457,1389.207520 781.723206,1383.456055 730.736572,1371.003296 
	C699.296875,1363.324585 668.526367,1353.655396 640.178528,1337.630249 
	C614.908447,1323.345093 593.538635,1304.938843 580.775940,1278.156982 
	C559.702271,1233.934692 564.422729,1170.236450 612.863342,1130.385742 
	C636.558655,1110.892334 663.897888,1098.667603 692.660095,1089.147339 
	C728.811951,1077.181519 766.020386,1069.988525 803.691956,1064.931641 
	C869.769897,1056.061279 936.193237,1054.643188 1002.704468,1056.233276 
	C1061.222046,1057.632202 1119.438110,1062.506714 1176.768921,1075.050171 
	C1190.083130,1077.963257 1203.219482,1081.689697 1216.827393,1085.136230 
M777.026123,1199.494385 
	C769.773987,1203.454468 761.796631,1206.508423 755.444275,1211.592651 
	C746.495300,1218.755005 746.742493,1229.865356 755.110901,1237.746460 
	C758.569946,1241.003906 762.617493,1244.149658 766.981079,1245.830322 
	C777.035583,1249.702271 787.260559,1253.489136 797.747986,1255.815063 
	C835.658386,1264.223267 874.311584,1265.830811 912.951599,1266.982910 
	C959.778259,1268.379150 1006.598572,1267.986084 1053.363647,1264.952271 
	C1078.635620,1263.312622 1103.833740,1260.896606 1128.532837,1254.935913 
	C1140.854858,1251.962158 1153.208252,1248.754272 1163.389771,1240.736450 
	C1166.784912,1238.062866 1169.968262,1234.375366 1171.680786,1230.464966 
	C1175.249756,1222.315796 1172.029785,1213.520264 1162.441040,1208.197998 
	C1153.380981,1203.169189 1143.577759,1198.870972 1133.577515,1196.254272 
	C1098.424072,1187.055908 1062.305664,1184.595581 1026.176636,1183.098511 
	C968.025757,1180.688721 909.880798,1180.772339 851.857239,1186.067383 
	C826.810486,1188.353271 801.852661,1191.406738 777.026123,1199.494385 
z"/>
<path fill="#1B5CB9" opacity="1.000000" stroke="none" 
	d="
M777.393555,1199.349487 
	C801.852661,1191.406738 826.810486,1188.353271 851.857239,1186.067383 
	C909.880798,1180.772339 968.025757,1180.688721 1026.176636,1183.098511 
	C1062.305664,1184.595581 1098.424072,1187.055908 1133.577515,1196.254272 
	C1143.577759,1198.870972 1153.380981,1203.169189 1162.441040,1208.197998 
	C1172.029785,1213.520264 1175.249756,1222.315796 1171.680786,1230.464966 
	C1169.968262,1234.375366 1166.784912,1238.062866 1163.389771,1240.736450 
	C1153.208252,1248.754272 1140.854858,1251.962158 1128.532837,1254.935913 
	C1103.833740,1260.896606 1078.635620,1263.312622 1053.363647,1264.952271 
	C1006.598572,1267.986084 959.778259,1268.379150 912.951599,1266.982910 
	C874.311584,1265.830811 835.658386,1264.223267 797.747986,1255.815063 
	C787.260559,1253.489136 777.035583,1249.702271 766.981079,1245.830322 
	C762.617493,1244.149658 758.569946,1241.003906 755.110901,1237.746460 
	C746.742493,1229.865356 746.495300,1218.755005 755.444275,1211.592651 
	C761.796631,1206.508423 769.773987,1203.454468 777.393555,1199.349487 
z"/>
</svg>