<?xml version="1.0" encoding="UTF-8"?>
<!DOCTYPE svg PUBLIC "-//W3C//DTD SVG 1.1//EN" "http://www.w3.org/Graphics/SVG/1.1/DTD/svg11.dtd">
<svg xmlns="http://www.w3.org/2000/svg" version="1.1" width="1920px" height="1920px" style="shape-rendering:geometricPrecision; text-rendering:geometricPrecision; image-rendering:optimizeQuality; fill-rule:evenodd; clip-rule:evenodd" xmlns:xlink="http://www.w3.org/1999/xlink">
<g><path style="opacity:1" fill="#1a5bb8" d="M -0.5,-0.5 C 639.5,-0.5 1279.5,-0.5 1919.5,-0.5C 1919.5,639.5 1919.5,1279.5 1919.5,1919.5C 1279.5,1919.5 639.5,1919.5 -0.5,1919.5C -0.5,1279.5 -0.5,639.5 -0.5,-0.5 Z"/></g>
<g><path style="opacity:1" fill="#fefefe" d="M 786.5,624.5 C 791.306,625.593 796.306,626.259 801.5,626.5C 860.484,631.53 911.818,653.697 955.5,693C 992.245,730.666 1013.91,775.832 1020.5,828.5C 986.167,828.5 951.833,828.5 917.5,828.5C 916.501,908.665 916.167,988.998 916.5,1069.5C 915.833,1069.5 915.5,1069.83 915.5,1070.5C 875.959,1092.89 833.292,1105.39 787.5,1108C 716.834,1108.5 646.167,1108.67 575.5,1108.5C 575.5,947.167 575.5,785.833 575.5,624.5C 645.833,624.5 716.167,624.5 786.5,624.5 Z"/></g>
<g><path style="opacity:1" fill="#71719c" d="M 786.5,624.5 C 791.783,624.096 796.783,624.762 801.5,626.5C 796.306,626.259 791.306,625.593 786.5,624.5 Z"/></g>
<g><path style="opacity:1" fill="#1a5ab8" d="M 779.5,720.5 C 821.097,721.725 855.93,737.392 884,767.5C 901.76,790.38 911.76,816.38 914,845.5C 919.441,886.012 911.441,923.345 890,957.5C 863.92,990.462 829.753,1008.63 787.5,1012C 752.835,1012.5 718.168,1012.67 683.5,1012.5C 683.5,930.833 683.5,849.167 683.5,767.5C 684.496,752.009 684.83,736.342 684.5,720.5C 716.167,720.5 747.833,720.5 779.5,720.5 Z"/></g>
<g><path style="opacity:1" fill="#2455a5" d="M 779.5,720.5 C 747.833,720.5 716.167,720.5 684.5,720.5C 684.83,736.342 684.496,752.009 683.5,767.5C 683.5,751.5 683.5,735.5 683.5,719.5C 715.671,719.168 747.671,719.502 779.5,720.5 Z"/></g>
<g><path style="opacity:1" fill="#1a5bb9" d="M 917.5,828.5 C 951.833,828.5 986.167,828.5 1020.5,828.5C 1027.3,876.673 1021.8,923.34 1004,968.5C 985.741,1010.59 957.241,1043.93 918.5,1068.5C 917.501,988.668 917.167,908.668 917.5,828.5 Z"/></g>
<g><path style="opacity:1" fill="#fefefe" d="M 1020.5,828.5 C 1058.83,828.333 1097.17,828.5 1135.5,829C 1196.53,833.101 1249.87,855.101 1295.5,895C 1335.8,936.127 1358.63,985.627 1364,1043.5C 1369.47,1101.59 1357.64,1155.59 1328.5,1205.5C 1296.4,1252.39 1253.06,1283.89 1198.5,1300C 1174.98,1306.5 1150.98,1310.5 1126.5,1312C 1056.83,1312.5 987.167,1312.67 917.5,1312.5C 917.5,1231.5 917.5,1150.5 917.5,1069.5C 918.167,1069.5 918.5,1069.17 918.5,1068.5C 957.241,1043.93 985.741,1010.59 1004,968.5C 1021.8,923.34 1027.3,876.673 1020.5,828.5 Z"/></g>
<g><path style="opacity:1" fill="#1a5bb9" d="M 1025.5,923.5 C 1061.18,923.117 1096.85,923.617 1132.5,925C 1205,934.836 1246.17,976.003 1256,1048.5C 1258.93,1079.81 1254.93,1110.15 1244,1139.5C 1223.14,1181.71 1189.31,1206.54 1142.5,1214C 1137.15,1214.52 1131.81,1215.19 1126.5,1216C 1092.83,1216.5 1059.17,1216.67 1025.5,1216.5C 1025.5,1118.83 1025.5,1021.17 1025.5,923.5 Z"/></g>
<g><path style="opacity:1" fill="#dfe8f5" d="M 917.5,828.5 C 917.167,908.668 917.501,988.668 918.5,1068.5C 918.5,1069.17 918.167,1069.5 917.5,1069.5C 917.167,1069.5 916.833,1069.5 916.5,1069.5C 916.167,988.998 916.501,908.665 917.5,828.5 Z"/></g>
<g><path style="opacity:1" fill="#1c54a5" d="M 915.5,1070.5 C 915.5,1069.83 915.833,1069.5 916.5,1069.5C 916.833,1069.5 917.167,1069.5 917.5,1069.5C 917.5,1150.5 917.5,1231.5 917.5,1312.5C 916.833,1231.83 916.167,1151.17 915.5,1070.5 Z"/></g>
</svg>
